<svg width="200" height="200" viewBox="0 0 200 200" fill="none" xmlns="http://www.w3.org/2000/svg">
  <rect width="200" height="200" rx="20" fill="#0D1117"/>
  <path fill-rule="evenodd" clip-rule="evenodd" d="M100 50C72.3858 50 50 72.3858 50 100C50 122.091 65.0726 140.778 85.5 146.639V130.237C85.5 124.863 89.8579 120.505 95.2321 120.505H104.768C110.142 120.505 114.5 124.863 114.5 130.237V146.639C134.927 140.778 150 122.091 150 100C150 72.3858 127.614 50 100 50ZM95 90C95 87.2386 97.2386 85 100 85C102.761 85 105 87.2386 105 90V100C105 102.761 102.761 105 100 105C97.2386 105 95 102.761 95 100V90Z" fill="#C9D1D9"/>
  <path d="M85.5 130.237V146.639C72.3375 142.837 61.3597 134.039 55 122.5" stroke="#C9D1D9" stroke-width="3" stroke-linecap="round"/>
  <path d="M114.5 130.237V146.639C127.663 142.837 138.64 134.039 145 122.5" stroke="#C9D1D9" stroke-width="3" stroke-linecap="round"/>
</svg>

